<?xml version="1.0" encoding="UTF-8"?>
<svg xmlns="http://www.w3.org/2000/svg" width="1060" height="720" viewBox="0 0 1060 720" role="img">
  <defs>
    <marker id="arrow" viewBox="0 0 10 10" refX="9" refY="5" markerWidth="8" markerHeight="8" orient="auto-start-reverse">
      <path d="M 0 0 L 10 5 L 0 10 z" fill="#334155"/>
    </marker>
    <style>
    .bg { fill: #f8fafc; }
    .title { font-family: Segoe UI, Arial, sans-serif; font-size: 25px; font-weight: 700; fill: #0f172a; }
    .subtitle { font-family: Segoe UI, Arial, sans-serif; font-size: 13.5px; fill: #475569; }
    .box { fill: #ffffff; stroke: #334155; stroke-width: 1.5; rx: 10; }
    .blue { fill: #eff6ff; stroke: #2563eb; }
    .green { fill: #ecfdf5; stroke: #047857; }
    .orange { fill: #fff7ed; stroke: #ea580c; }
    .gray { fill: #f1f5f9; stroke: #64748b; }
    .red { fill: #fef2f2; stroke: #b91c1c; }
    .purple { fill: #faf5ff; stroke: #a855f7; }
    .label { font-family: Segoe UI, Arial, sans-serif; font-size: 15px; font-weight: 700; fill: #0f172a; }
    .small { font-family: Segoe UI, Arial, sans-serif; font-size: 12px; fill: #334155; }
    .tiny { font-family: Segoe UI, Arial, sans-serif; font-size: 11px; fill: #475569; }
    .link { font-family: Segoe UI, Arial, sans-serif; font-size: 12px; fill: #1d4ed8; text-decoration: underline; }
    .arrow { stroke: #334155; stroke-width: 2; fill: none; marker-end: url(#arrow); }
    .dash { stroke: #64748b; stroke-width: 1.7; fill: none; stroke-dasharray: 6 5; marker-end: url(#arrow); }
    </style>
  </defs>
  <rect class="bg" x="0" y="0" width="1060" height="720"/>
  <text class="title" x="34" y="42">Services Runtime Flow</text>
  <text class="subtitle" x="34" y="64">Service-level map: public bridge, broker, launcher, Codex bridge, model export, RAG agent and MCP tool surface.</text>
  
  <!-- Arrows -->
  <path class="arrow" d="M 266 160 L 390 160"/>
  <text class="tiny" x="285" y="148">forward to 3572</text>
  <path class="arrow" d="M 640 160 L 744 160"/>
  <text class="tiny" x="656" y="148">launcher starts/checks</text>
  <path class="dash" d="M 266 348 L 390 348"/>
  <text class="tiny" x="278" y="336">optional bridge helpers</text>
  <path class="dash" d="M 640 348 L 744 348"/>
  <text class="tiny" x="654" y="336">documented contracts</text>
  
  <!-- Row 1: Core services -->
  <a href="vulkan_bridge/flow.svg">
    <rect class="box blue" x="56" y="112" width="210" height="96" rx="10"/>
    <text class="label" x="72" y="139">3571 vulkan_bridge</text>
    <text class="small" x="72" y="163">OpenWebUI public tool</text>
    <text class="small" x="72" y="182">/vulkan_helper only</text>
    <text class="small" x="72" y="201">public payload shaping</text>
  </a>
  <a href="aicarmine_broker/flow.svg">
    <rect class="box green" x="390" y="112" width="250" height="112" rx="10"/>
    <text class="label" x="406" y="139">3572 aicarmine_broker</text>
    <text class="small" x="406" y="163">planner loop owner</text>
    <text class="small" x="406" y="182">validator-only controller</text>
    <text class="small" x="406" y="201">internal tools and jobs</text>
  </a>
  <a href="launch/flow.svg">
    <rect class="box orange" x="744" y="112" width="210" height="96" rx="10"/>
    <text class="label" x="760" y="139">services/launch</text>
    <text class="small" x="760" y="163">env and process order</text>
    <text class="small" x="760" y="182">venvs and ports</text>
    <text class="small" x="760" y="201">tool registration</text>
  </a>
  
  <!-- Row 2: Supporting services -->
  <a href="codex_bridge/flow.svg">
    <rect class="box gray" x="56" y="300" width="210" height="96" rx="10"/>
    <text class="label" x="72" y="327">codex_bridge</text>
    <text class="small" x="72" y="351">MCP tool servers (26+)</text>
    <text class="small" x="72" y="370">Responses helpers</text>
    <text class="small" x="72" y="389">Ollama passthrough</text>
  </a>
  <a href="model_export/flow.svg">
    <rect class="box gray" x="390" y="300" width="250" height="96" rx="10"/>
    <text class="label" x="406" y="327">model_export</text>
    <text class="small" x="406" y="351">CLI parse only</text>
    <text class="small" x="406" y="370">task router</text>
    <text class="small" x="406" y="389">exporter adapters</text>
  </a>
  <a href="agentic_loop_logc_app/flow.svg">
    <rect class="box purple" x="744" y="300" width="210" height="96" rx="10"/>
    <text class="label" x="760" y="327">RAG agent loop</text>
    <text class="small" x="760" y="351">data query agent</text>
    <text class="small" x="760" y="370">SQLite/PostgreSQL connector</text>
    <text class="small" x="760" y="389">RAG indexer + retriever</text>
  </a>
  
  <!-- Row 3: Documentation and reference -->
  <a href="MCP_TOOL_INDEX.md">
    <rect class="box blue" x="56" y="488" width="210" height="96" rx="10"/>
    <text class="label" x="72" y="515">MCP Tool Index</text>
    <text class="small" x="72" y="539">26+ MCP servers catalogued</text>
    <text class="small" x="72" y="559">Categorized by domain</text>
    <text class="small" x="72" y="579">Tool selection guide included</text>
  </a>
  <a href="SKILLS_INDEX.md">
    <rect class="box green" x="390" y="488" width="250" height="96" rx="10"/>
    <text class="label" x="406" y="515">Skills Index</text>
    <text class="small" x="406" y="539">19 skills documented</text>
    <text class="small" x="406" y="559">Activation by task type</text>
    <text class="small" x="406" y="579">Domain extension mapping</text>
  </a>
  <a href="SERVICES_MODULE_TECHNICAL_REFERENCE.md">
    <rect class="box gray" x="744" y="488" width="210" height="96" rx="10"/>
    <text class="label" x="760" y="515">contracts/docs</text>
    <text class="small" x="760" y="539">runtime contracts</text>
    <text class="small" x="760" y="559">module references</text>
    <text class="small" x="760" y="579">payload limits</text>
  </a>
  
  <!-- Navigation footer -->
  <rect class="box gray" x="34" y="620" width="992" height="80" rx="10"/>
  <text class="label" x="52" y="648">Navigation Links</text>
  <a href="../flow.svg"><text class="link" x="52" y="672">Root flow</text></a>
  <a href="aicarmine_broker/flow.svg"><text class="link" x="162" y="672">Broker</text></a>
  <a href="vulkan_bridge/flow.svg"><text class="link" x="272" y="672">Bridge</text></a>
  <a href="launch/flow.svg"><text class="link" x="382" y="672">Launch</text></a>
  <a href="codex_bridge/flow.svg"><text class="link" x="492" y="672">Codex Bridge</text></a>
  <a href="model_export/flow.svg"><text class="link" x="612" y="672">Model Export</text></a>
  <a href="agentic_loop_logc_app/flow.svg"><text class="link" x="732" y="672">RAG Agent</text></a>
  <a href="MCP_TOOL_INDEX.md"><text class="link" x="852" y="672">MCP Index</text></a>
  <a href="SKILLS_INDEX.md"><text class="link" x="942" y="672">Skills Index</text></a>
  
  <!-- Updated invariant text -->
  <text class="subtitle" x="34" y="710">Test-backed invariants: filesystem survives SQLite failure; 3571 OpenAPI exposes only /vulkan_helper; command tools classify consent; final_path rehydration does not leak local paths; MCP tool surface is authoritative.</text>
</svg>